<svg id="Layer_1" data-name="Layer 1" xmlns="http://www.w3.org/2000/svg" viewBox="0 0 513.62 846.3"><defs><style>.cls-1{fill:#fff;}.cls-1,.cls-2{stroke:#000;stroke-miterlimit:10;}.cls-2{fill:none;stroke-width:15px;}</style></defs><path class="cls-1" d="M306.25,7.5"/><path class="cls-2" d="M306.25,7.5c-297,0-305,501.41,0,501.41s225-303.51,0-303.51S7.5,365.32,7.5,508.91,209.25,528.5,209.25,654.5c0,107.1,214.49,115.81,278.83,116"/><path d="M385.89,842.86a7.5,7.5,0,0,1,2.26-10.37l96.5-62.08-97.06-61.2a7.5,7.5,0,1,1,8-12.69l107,67.48a7.5,7.5,0,0,1,.05,12.66l-106.4,68.45a7.52,7.52,0,0,1-10.38-2.25Z"/></svg>